<svg id="elfEwcZzOCW1" xmlns="http://www.w3.org/2000/svg" xmlns:xlink="http://www.w3.org/1999/xlink" viewBox="0 0 500 500" shape-rendering="geometricPrecision" text-rendering="geometricPrecision"><g><g><path d="M147.68,287.645h-60.855v-27.475l60.855-72.337h29.115v73.895h15.09v25.917h-15.09v22.472h-29.115v-22.472Zm0-25.917v-37.838l-32.156,37.838h32.156Z" fill="#407bff"/><path d="M202.302,249.508c0-22.854,4.113-38.846,12.343-47.978c8.229-9.131,20.762-13.697,37.604-13.697c8.091,0,14.735.999,19.929,2.994c5.194,1.996,9.432,4.593,12.712,7.791c3.28,3.199,5.864,6.561,7.75,10.088c1.887,3.526,3.404,7.641,4.552,12.344c2.241,8.967,3.362,18.317,3.362,28.049c0,21.815-3.691,37.782-11.072,47.896-7.382,10.116-20.094,15.172-38.137,15.172-10.116,0-18.29-1.614-24.522-4.839-6.234-3.225-11.347-7.955-15.337-14.188-2.9-4.428-5.155-10.484-6.766-18.166-1.613-7.682-2.418-16.17-2.418-25.466Zm33.134.082c0,15.31,1.353,25.767,4.059,31.372c2.707,5.604,6.63,8.406,11.769,8.406c3.39,0,6.329-1.189,8.817-3.568c2.488-2.378,4.319-6.136,5.496-11.276c1.175-5.139,1.763-13.15,1.763-24.031c0-15.964-1.353-26.695-4.059-32.19-2.707-5.496-6.766-8.243-12.18-8.243-5.523,0-9.514,2.803-11.975,8.407-2.46,5.604-3.69,15.979-3.69,31.123Z" fill="#407bff"/><path d="M371.744,287.645h-60.855v-27.475l60.855-72.337h29.115v73.895h15.09v25.917h-15.09v22.472h-29.115v-22.472Zm0-25.917v-37.838l-32.155,37.838h32.155Z" fill="#407bff"/></g></g><g><g><g opacity="0.3"><path d="M200.952,145.618c0,1.03-.835,1.865-1.865,1.865s-1.865-.835-1.865-1.865.835-1.865,1.865-1.865s1.865.835,1.865,1.865Z" fill="#407bff"/><circle r="1.323" transform="translate(72.966 216.129)" fill="#407bff"/><circle r="1.893" transform="translate(291.054 408.333)" fill="#407bff"/><circle r="1.323" transform="translate(336.498 332)" fill="#407bff"/><path d="M424.173,95.619c0,.731-.592,1.323-1.323,1.323s-1.323-.592-1.323-1.323.592-1.323,1.323-1.323s1.323.592,1.323,1.323Z" fill="#407bff"/><path d="M172.754,68.963c0,.731-.592,1.323-1.323,1.323s-1.323-.592-1.323-1.323.592-1.323,1.323-1.323s1.323.592,1.323,1.323Z" fill="#407bff"/><circle r="1.323" transform="translate(277.695 136.943)" fill="#407bff"/></g><g><g><circle r="21.91" transform="translate(141.233 116.361)" fill="#407bff"/><circle r="21.91" transform="translate(141.233 116.361)" opacity="0.7" fill="#fff"/></g><path d="M133.682,99.83c-3.071,0-5.986.635-8.641,1.77-3.55,3.893-5.716,9.078-5.716,14.762c0,12.097,9.807,21.904,21.904,21.904c3.081,0,6.017-.635,8.683-1.78c0,0,0,0,0-.01c3.529-3.894,5.684-9.058,5.684-14.731.001-12.108-9.806-21.915-21.914-21.915Z" opacity="0.2" fill="#407bff"/><path d="M131.504,105.623c0,1.106-.897,2.003-2.003,2.003s-2.003-.897-2.003-2.003.897-2.003,2.003-2.003s2.003.897,2.003,2.003Z" opacity="0.2" fill="#407bff"/><path d="M155.064,103.62c0,1.106-.897,2.003-2.003,2.003s-2.003-.897-2.003-2.003.897-2.003,2.003-2.003c1.106.001,2.003.897,2.003,2.003Z" opacity="0.2" fill="#407bff"/><path d="M151.058,117.901c0,1.81-1.467,3.278-3.278,3.278-1.81,0-3.278-1.468-3.278-3.278s1.467-3.278,3.278-3.278c1.81,0,3.278,1.468,3.278,3.278Z" opacity="0.2" fill="#407bff"/><path d="M140.642,127.246c0,2.42-1.962,4.381-4.381,4.381-2.42,0-4.381-1.962-4.381-4.381c0-2.42,1.962-4.381,4.381-4.381s4.381,1.962,4.381,4.381Z" opacity="0.2" fill="#407bff"/></g><g><g><ellipse rx="19.226" ry="19.226" transform="matrix(.2298-.9732 0.9732 0.2298 382.196235 376.28594)" fill="#407bff"/><ellipse rx="19.226" ry="19.226" transform="matrix(.2298-.9732 0.9732 0.2298 382.196235 376.28594)" opacity="0.3" fill="#fff"/></g><path d="M394.333,361.339c-1.749-.531-3.612-.812-5.538-.812-10.619,0-19.229,8.61-19.229,19.228c0,6.018,2.759,11.379,7.09,14.908c1.749.531,3.612.812,5.539.812c10.619,0,19.228-8.61,19.228-19.228c0-6.017-2.759-11.389-7.09-14.908Z" opacity="0.4" fill="#407bff"/><path d="M363.83,381.948c-20.534,9.662-5.216,17.109,23.712,6.713c26.784-9.626,36.967-21.769,13.052-18.006c1.234,5.108-32.312,18.179-36.764,11.293Z" fill="#407bff"/></g></g></g><g><g><path d="M394.097,187.83c-26.89,18.17-61.7,42.13-71.31,99.81h-2.05c9.35-56.98,42.89-81.57,69.79-99.81h3.57Z" opacity="0.2"/><g><path d="M255.019,368.267c-16.97.001-33.809-7.662-41.986-20.186-5.053-7.739-10.92-23.95,6.555-45.578l1.556,1.258c-12.362,15.299-14.648,30.65-6.436,43.227c9.994,15.309,33.596,23.006,53.73,17.528c20.628-5.613,33.152-23.557,34.361-49.228c4.135-87.807,50.784-114.855,84.846-134.605c21.162-12.27,36.452-21.136,33.091-39.838-.466-2.595-1.501-4.388-3.163-5.481-4.353-2.868-12.853-.886-22.694,1.408-19.306,4.497-45.746,10.657-61.497-16.134l1.724-1.014c15.006,25.523,39.577,19.8,59.319,15.199c10.29-2.396,19.177-4.467,24.248-1.131c2.145,1.412,3.464,3.636,4.032,6.799c3.609,20.082-13.013,29.72-34.057,41.922-33.664,19.519-79.768,46.251-83.852,132.968-1.252,26.596-14.313,45.208-35.834,51.064-4.535,1.234-9.246,1.821-13.943,1.822Z" fill="#407bff"/><path d="M255.019,368.267c-16.97.001-33.809-7.662-41.986-20.186-5.053-7.739-10.92-23.95,6.555-45.578l1.556,1.258c-12.362,15.299-14.648,30.65-6.436,43.227c9.994,15.309,33.596,23.006,53.73,17.528c20.628-5.613,33.152-23.557,34.361-49.228c4.135-87.807,50.784-114.855,84.846-134.605c21.162-12.27,36.452-21.136,33.091-39.838-.466-2.595-1.501-4.388-3.163-5.481-4.353-2.868-12.853-.886-22.694,1.408-19.306,4.497-45.746,10.657-61.497-16.134l1.724-1.014c15.006,25.523,39.577,19.8,59.319,15.199c10.29-2.396,19.177-4.467,24.248-1.131c2.145,1.412,3.464,3.636,4.032,6.799c3.609,20.082-13.013,29.72-34.057,41.922-33.664,19.519-79.768,46.251-83.852,132.968-1.252,26.596-14.313,45.208-35.834,51.064-4.535,1.234-9.246,1.821-13.943,1.822Z" opacity="0.2" fill="#fff"/></g><g><g><path d="M312.758,96.949c6.855-.125,13.582,2.134,13.582,2.134s10.965,18.771,12.302,23.067c-.461,4.24-7.615,11.191-7.615,11.191L312.758,96.949Z" fill="#407bff"/><path d="M312.758,96.949c6.855-.125,13.582,2.134,13.582,2.134s10.965,18.771,12.302,23.067c-.461,4.24-7.615,11.191-7.615,11.191L312.758,96.949Z" opacity="0.3" fill="#fff"/></g><g><g><path d="M345.339,188.133c-4.136-5.248-8.197-10.594-11.559-16.385-.84-1.447-1.636-2.921-2.389-4.415-.428-.849-.842-1.705-1.244-2.567-.351-.753-1.126-1.862-1.204-2.684-1.201-12.672,3.137-22-1.028-32.172l-16.471,6.437c0,0,1.401,18.122,4.598,28.963c1.984,6.726,6.475,12.549,10.803,17.937c1.354,1.686,2.659,3.41,4.01,5.098c1.279,1.598,2.712,3.064,3.994,4.654c1.947,2.413,2.595,4.716,1.115,7.561-.079.152-.162.303-.247.453-.42.741,1.546,1.581,2.781.021c2.042-2.581,1.721-2.422,3.462-4.623c1.057-1.336,2.271-2.779,3.319-4.033c1.024-1.223,1.047-2.993.06-4.245Z" fill="#407bff"/><path d="M345.339,188.133c-4.136-5.248-8.197-10.594-11.559-16.385-.84-1.447-1.636-2.921-2.389-4.415-.428-.849-.842-1.705-1.244-2.567-.351-.753-1.126-1.862-1.204-2.684-1.201-12.672,3.137-22-1.028-32.172l-16.471,6.437c0,0,1.401,18.122,4.598,28.963c1.984,6.726,6.475,12.549,10.803,17.937c1.354,1.686,2.659,3.41,4.01,5.098c1.279,1.598,2.712,3.064,3.994,4.654c1.947,2.413,2.595,4.716,1.115,7.561-.079.152-.162.303-.247.453-.42.741,1.546,1.581,2.781.021c2.042-2.581,1.721-2.422,3.462-4.623c1.057-1.336,2.271-2.779,3.319-4.033c1.024-1.223,1.047-2.993.06-4.245Z" opacity="0.7" fill="#fff"/></g><path d="M341.312,182.918c-2.205,2.665-6.688,6.122-8.664,7.523.43.479.856.968,1.283,1.457c4.068-2.657,7.284-6.104,8.504-7.504-.377-.485-.75-.981-1.123-1.476Z" opacity="0.3" fill="#407bff"/><path d="M345.335,188.135c-.038-.052-.078-.094-.116-.145-.694.723-1.183,1.876-1.265,3.17-.066.894.084,1.712.377,2.351.333-.386.644-.768.949-1.131c1.028-1.224,1.042-2.993.055-4.245Z" opacity="0.3" fill="#407bff"/></g><g><g><path d="M308.842,108.951c-1.723,2.506-3.754,4.976-6.375,7.194-1.301,1.115-2.786,2.124-4.417,2.98-.823.42-1.688.784-2.583,1.085l-.675.217-.218.068c-.158.048-.317.091-.477.129-.302.068-.605.114-.873.136-1.083.082-1.868-.072-2.515-.233-1.277-.348-2.13-.813-2.937-1.264-.795-.459-1.493-.929-2.154-1.414-1.302-.991-2.48-1.986-3.578-3.048-2.21-2.11-4.17-4.298-5.99-6.735-.83-1.111-.602-2.684.509-3.513.857-.641,1.99-.651,2.843-.112l.076.049c2.36,1.498,4.741,3.078,7.064,4.492c1.173.692,2.319,1.388,3.446,1.93.554.28,1.097.535,1.587.716.477.186.953.292,1.077.267.052-.003-.01-.074-.378-.061-.089.005-.215.017-.343.045-.074.014-.146.033-.218.056-.069.023.029-.019.035-.025l.331-.169c.44-.224.862-.504,1.29-.789.856-.579,1.671-1.314,2.503-2.12c1.646-1.635,3.23-3.67,4.902-5.786l.022-.029c1.712-2.168,4.858-2.537,7.026-.825c2.076,1.639,2.493,4.608,1.02,6.759Z" fill="#407bff"/><path d="M308.842,108.951c-1.723,2.506-3.754,4.976-6.375,7.194-1.301,1.115-2.786,2.124-4.417,2.98-.823.42-1.688.784-2.583,1.085l-.675.217-.218.068c-.158.048-.317.091-.477.129-.302.068-.605.114-.873.136-1.083.082-1.868-.072-2.515-.233-1.277-.348-2.13-.813-2.937-1.264-.795-.459-1.493-.929-2.154-1.414-1.302-.991-2.48-1.986-3.578-3.048-2.21-2.11-4.17-4.298-5.99-6.735-.83-1.111-.602-2.684.509-3.513.857-.641,1.99-.651,2.843-.112l.076.049c2.36,1.498,4.741,3.078,7.064,4.492c1.173.692,2.319,1.388,3.446,1.93.554.28,1.097.535,1.587.716.477.186.953.292,1.077.267.052-.003-.01-.074-.378-.061-.089.005-.215.017-.343.045-.074.014-.146.033-.218.056-.069.023.029-.019.035-.025l.331-.169c.44-.224.862-.504,1.29-.789.856-.579,1.671-1.314,2.503-2.12c1.646-1.635,3.23-3.67,4.902-5.786l.022-.029c1.712-2.168,4.858-2.537,7.026-.825c2.076,1.639,2.493,4.608,1.02,6.759Z" opacity="0.7" fill="#fff"/></g><g><path d="M272.285,102.416l1.172,1.966c0,0,.895,2.616,2.686,3.1l4.854-1.572-.243-.408c.002.001.005.001.007.001-.622-.947-.555-2.773-.336-4.292.218-1.519-.57-1.573-1.152-1.195-.336.218-.574.911-.847,1.658-.239-.329-.495-.646-.784-.934l-1.483-1.477c-.64-.637-1.665-.666-2.34-.066l-1.202,1.068c-.612.544-.751,1.447-.332,2.151Z" fill="#407bff"/><path d="M272.285,102.416l1.172,1.966c0,0,.895,2.616,2.686,3.1l4.854-1.572-.243-.408c.002.001.005.001.007.001-.622-.947-.555-2.773-.336-4.292.218-1.519-.57-1.573-1.152-1.195-.336.218-.574.911-.847,1.658-.239-.329-.495-.646-.784-.934l-1.483-1.477c-.64-.637-1.665-.666-2.34-.066l-1.202,1.068c-.612.544-.751,1.447-.332,2.151Z" opacity="0.7" fill="#fff"/></g></g><g><path d="M317.674,95.224c-4.649,1.128-11.036,3.781-15.349,6.468-1.529.952-2.292,2.76-1.932,4.525c1.924,9.44,6.314,22.085,11.053,30.129l22.111-9.147c.152-3.9-5.216-16.52-10.684-28.717-.982-2.194-2.863-3.824-5.199-3.258Z" fill="#407bff"/><path d="M317.674,95.224c-4.649,1.128-11.036,3.781-15.349,6.468-1.529.952-2.292,2.76-1.932,4.525c1.924,9.44,6.314,22.085,11.053,30.129l22.111-9.147c.152-3.9-5.216-16.52-10.684-28.717-.982-2.194-2.863-3.824-5.199-3.258Z" opacity="0.8" fill="#fff"/></g><path d="M326.296,106.214l-4.388-1.471c.982,2.567,4.533,5.821,7.03,7.732-.823-2.006-1.715-4.103-2.642-6.261Z" opacity="0.3" fill="#407bff"/><g><path d="M316.217,85.32c-1.825-3.481-5.774-5.233-10.516-4.837-3.998.334-7.544,4.416-7.123,6.622.42,2.206,3.785,3.14,4.394,3.906l-2.773,2.01c-1.38,1.001-1.65,2.947-.596,4.287c1.167,1.482,2.703,3.03,3.598,4.123c7.664-.199,13.332-3.123,15.374-5.936-.734-3.579-.543-6.713-2.358-10.175Z" fill="#407bff"/><path d="M316.217,85.32c-1.825-3.481-5.774-5.233-10.516-4.837-3.998.334-7.544,4.416-7.123,6.622.42,2.206,3.785,3.14,4.394,3.906l-2.773,2.01c-1.38,1.001-1.65,2.947-.596,4.287c1.167,1.482,2.703,3.03,3.598,4.123c7.664-.199,13.332-3.123,15.374-5.936-.734-3.579-.543-6.713-2.358-10.175Z" opacity="0.8" fill="#fff"/></g><path d="M312.461,87.476c1.522,3.896-.401,8.288-4.297,9.81s-8.288-.401-9.81-4.297c-1.522-3.895.401-8.288,4.297-9.81c3.895-1.522,8.287.402,9.81,4.297Z" fill="#263238"/><g><g><path d="M377.388,177.596c-.111-3.289-.253-2.96-.349-5.764-.058-1.703-.065-3.589-.076-5.223-.011-1.595-1.138-2.96-2.701-3.277-1.325-.269-2.654-.525-3.977-.807-1.726-.368-3.432-.764-5.127-1.256-1.314-.382-2.617-.803-3.905-1.267-1.38-.497-2.741-1.042-4.089-1.62-1.576-.676-3.133-1.396-4.678-2.138-1.725-.828-3.437-1.684-5.143-2.551-6.581-10.895-6.723-18.074-13.786-26.495l-15.16,6.858c0,0,11.139,19.765,18.725,28.145c4.367,4.823,11.218,6.997,17.328,8.575c4.408,1.138,8.878,2.009,13.353,2.831c1.74.319,3.631.443,5.128,1.482c1.179.818,1.789,2.095,2.137,3.452.071.277.131.557.185.839.16.837,2.203.205,2.135-1.784Z" fill="#407bff"/><path d="M377.388,177.596c-.111-3.289-.253-2.96-.349-5.764-.058-1.703-.065-3.589-.076-5.223-.011-1.595-1.138-2.96-2.701-3.277-1.325-.269-2.654-.525-3.977-.807-1.726-.368-3.432-.764-5.127-1.256-1.314-.382-2.617-.803-3.905-1.267-1.38-.497-2.741-1.042-4.089-1.62-1.576-.676-3.133-1.396-4.678-2.138-1.725-.828-3.437-1.684-5.143-2.551-6.581-10.895-6.723-18.074-13.786-26.495l-15.16,6.858c0,0,11.139,19.765,18.725,28.145c4.367,4.823,11.218,6.997,17.328,8.575c4.408,1.138,8.878,2.009,13.353,2.831c1.74.319,3.631.443,5.128,1.482c1.179.818,1.789,2.095,2.137,3.452.071.277.131.557.185.839.16.837,2.203.205,2.135-1.784Z" opacity="0.8" fill="#fff"/></g><path d="M369.7,162.4c-.597-.131-1.203-.265-1.806-.408.047,3.453-1.572,9.417-2.167,11.224.631.119,1.271.241,1.902.361c1.755-4.745,2.031-9.768,2.071-11.177Z" opacity="0.3" fill="#407bff"/><path d="M376.961,166.61c-.011-1.599-1.134-2.961-2.694-3.281-.314-.064-.638-.132-.954-.186.066.94.65,2.031,1.628,2.897.641.578,1.366.962,2.032,1.143-.01-.199-.011-.386-.012-.573Z" opacity="0.3" fill="#407bff"/></g><path d="M311.046,87.54c.405,1.516-1.292,3.11-2.65,1.799-1.102-1.064-2.762-2.846-4.117-3.693-1.392-.871.464-2.387,2.65-1.799c2.041.55,3.712,2.176,4.117,3.693Z" fill="#fff"/><g><path d="M311.161,135.86c-.705.26.583,1.456.583,1.456s13.97-4.787,22.495-9.716c.072-1.031-.678-1.578-.678-1.578s-10.372,5.404-22.4,9.838Z" fill="#407bff"/><path d="M311.161,135.86c-.705.26.583,1.456.583,1.456s13.97-4.787,22.495-9.716c.072-1.031-.678-1.578-.678-1.578s-10.372,5.404-22.4,9.838Z" opacity="0.5" fill="#fff"/></g><g><g><path d="M321.46,94.563c2.758,1.393,5.354,2.868,7.947,4.501c1.291.813,2.576,1.648,3.842,2.549c1.276.883,2.535,1.814,3.798,2.862l.474.388.591.533c.42.37.728.711,1.037,1.051.324.351.591.689.854,1.026.273.339.532.676.765,1.008.989,1.328,1.795,2.679,2.586,4.019c1.537,2.717,2.868,5.43,3.966,8.349.49,1.302-.168,2.754-1.471,3.245-.978.368-2.042.088-2.718-.626l-.049-.054c-2.009-2.128-3.936-4.373-5.875-6.458-1.897-2.079-3.912-4.213-5.537-5.141-2.27-1.416-4.798-2.822-7.31-4.207l-7.563-4.198-.019-.01c-2.415-1.34-3.286-4.384-1.946-6.799c1.309-2.355,4.245-3.238,6.628-2.038Z" fill="#407bff"/><path d="M321.46,94.563c2.758,1.393,5.354,2.868,7.947,4.501c1.291.813,2.576,1.648,3.842,2.549c1.276.883,2.535,1.814,3.798,2.862l.474.388.591.533c.42.37.728.711,1.037,1.051.324.351.591.689.854,1.026.273.339.532.676.765,1.008.989,1.328,1.795,2.679,2.586,4.019c1.537,2.717,2.868,5.43,3.966,8.349.49,1.302-.168,2.754-1.471,3.245-.978.368-2.042.088-2.718-.626l-.049-.054c-2.009-2.128-3.936-4.373-5.875-6.458-1.897-2.079-3.912-4.213-5.537-5.141-2.27-1.416-4.798-2.822-7.31-4.207l-7.563-4.198-.019-.01c-2.415-1.34-3.286-4.384-1.946-6.799c1.309-2.355,4.245-3.238,6.628-2.038Z" opacity="0.8" fill="#fff"/></g><g><path d="M349.733,125.738l-.849-2.125c0,0-.474-2.724-2.167-3.483l-5.04.792.176.441c-.002-.001-.004-.002-.007-.002.466,1.032.113,2.826-.341,4.291-.454,1.466.316,1.643.95,1.361.366-.163.71-.81,1.096-1.505.185.363.388.716.628,1.045l1.233,1.691c.532.729,1.54.919,2.301.432l1.354-.867c.691-.441.971-1.31.666-2.071Z" fill="#407bff"/><path d="M349.733,125.738l-.849-2.125c0,0-.474-2.724-2.167-3.483l-5.04.792.176.441c-.002-.001-.004-.002-.007-.002.466,1.032.113,2.826-.341,4.291-.454,1.466.316,1.643.95,1.361.366-.163.71-.81,1.096-1.505.185.363.388.716.628,1.045l1.233,1.691c.532.729,1.54.919,2.301.432l1.354-.867c.691-.441.971-1.31.666-2.071Z" opacity="0.8" fill="#fff"/></g></g><g><g><path d="M317.236,106.057l-1.219.099-7.485,18.084c.44.03.844-.007,1.218-.099c0,0,9.76-3.637,12.714-4.97-1.988-4.12-5.228-13.114-5.228-13.114Z" opacity="0.3" fill="#407bff"/><path d="M303.568,110.802c.417,3.257,2.859,10.179,4.965,13.438c3.655-1.26,9.76-3.637,12.714-4.97-1.989-4.119-4.083-9.795-5.229-13.113-3.149.209-10.012,2.794-12.45,4.645Z" fill="#fff"/></g><path d="M311,114.713c-.408,1.365-1.846,2.14-3.21,1.731s-2.14-1.846-1.731-3.21c.409-1.365,1.846-2.14,3.21-1.731c1.364.408,2.139,1.845,1.731,3.21Z" opacity="0.3" fill="#407bff"/><path d="M312.913,111.268c-.134.447-.605.701-1.052.567s-.701-.605-.568-1.052c.134-.447.605-.701,1.052-.567.448.133.702.604.568,1.052Z" opacity="0.6" fill="#407bff"/><path d="M315.145,110.399c-.134.447-.605.701-1.052.567s-.701-.605-.567-1.052.605-.701,1.052-.567.701.605.567,1.052Z" opacity="0.6" fill="#407bff"/><polygon points="318.291,118.187 309.044,121.841 308.485,120.023 317.732,116.368" opacity="0.5" fill="#407bff"/></g></g></g></g><g><g><path d="M267.257,257.17c-.2,7.54-.76,13.33-1.68,17.35-1.18,5.14-3.01,8.9-5.5,11.28-2.48,2.38-5.42,3.57-8.81,3.57-5.14,0-9.07-2.8-11.77-8.41-.44-.91-.84-1.95-1.21-3.11-5.71,4.91-11.03,10.27-15.92,16.03l-5.31,6.26c2.87,2.91,6.13,5.3,9.77,7.19c6.23,3.22,14.4,4.84,24.52,4.84c1.78,0,3.5-.05,5.17-.15c6.12-9.06,11.19-18.8,15.1-29.02l14.85-38.72-19.21,12.89Z" opacity="0.2"/><g><g><path d="M133.388,309.958c5.597,5.597,17.502,17.502,17.502,17.502l49.011-46.167c-16.866-6.412-49.742,11.895-66.513,28.665Z" fill="#263238"/><path d="M194.422,370.992c-5.597-5.597-17.502-17.502-17.502-17.502l46.167-49.01c6.412,16.865-11.894,49.741-28.665,66.512Z" fill="#263238"/><g><path d="M261.399,260.699L280.49,223.89l-36.809,19.091c-11.826,6.134-22.744,13.877-32.444,23.008l-62.747,59.07l30.83,30.83l59.07-62.747c9.132-9.699,16.875-20.617,23.009-32.443Z" fill="#407bff"/><path d="M261.399,260.699L280.49,223.89l-36.809,19.091c-11.826,6.134-22.744,13.877-32.444,23.008l-62.747,59.07l30.83,30.83l59.07-62.747c9.132-9.699,16.875-20.617,23.009-32.443Z" opacity="0.6" fill="#fff"/></g><circle r="12.899" transform="translate(222.198 282.183)" fill="#fff"/><circle r="8.285" transform="translate(222.197 282.183)" fill="#407bff"/><polygon points="189.746,344.816 159.564,314.635 184.275,291.371 213.009,320.105" opacity="0.3" fill="#407bff"/><g><path d="M140.22,337.616c-22.605,1.839-30.093,16.306-32.647,35.539-1.302,9.809-1.88,19.733-10.117,25.475-2.286,1.594-1.151,5.147,1.635,5.06c30.339-.947,44.49-15.804,46.267-22.025-.612,3.933-1.504,7.035-2.492,9.475-1.016,2.507,1.737,4.827,4.029,3.391c8.517-5.336,19.199-15.155,19.909-31.078-6.297-8.85-26.584-25.837-26.584-25.837Z" fill="#407bff"/><path d="M140.22,337.616c-22.605,1.839-30.093,16.306-32.647,35.539-1.302,9.809-1.88,19.733-10.117,25.475-2.286,1.594-1.151,5.147,1.635,5.06c30.339-.947,44.49-15.804,46.267-22.025-.612,3.933-1.504,7.035-2.492,9.475-1.016,2.507,1.737,4.827,4.029,3.391c8.517-5.336,19.199-15.155,19.909-31.078-6.297-8.85-26.584-25.837-26.584-25.837Z" opacity="0.2" fill="#fff"/></g><polygon points="170.276,370.3 134.08,334.104 153.363,329.933 174.448,351.017" fill="#407bff"/></g></g></g></g></svg>
